<?xml version="1.0" encoding="UTF-8"?>
<svg version="1.1" xmlns="http://www.w3.org/2000/svg" width="500" height="500">
<path d="M0 0 C165 0 330 0 500 0 C500 165 500 330 500 500 C335 500 170 500 0 500 C0 335 0 170 0 0 Z " fill="#060706" transform="translate(0,0)"/>
<path d="M0 0 C1.14825256 -0.00430527 1.14825256 -0.00430527 2.31970215 -0.00869751 C3.93693787 -0.0107375 5.5541983 -0.00521213 7.17138672 0.00732422 C9.64737091 0.02337992 12.12172285 0.00747453 14.59765625 -0.01171875 C16.16927444 -0.00973631 17.74089161 -0.0058926 19.3125 0 C20.05318726 -0.00607269 20.79387451 -0.01214539 21.55700684 -0.0184021 C26.58588768 0.05043747 26.58588768 0.05043747 28.86024475 1.43811035 C30.87692753 4.48852855 30.49427839 7.62389652 30.39819336 11.15185547 C30.38456757 12.33550941 30.38456757 12.33550941 30.3706665 13.54307556 C30.35030882 15.25864436 30.32378148 16.9741484 30.29185295 18.68954086 C30.24567102 21.41557788 30.22566493 24.14058149 30.21424866 26.86697388 C30.18124072 34.6191571 30.13485909 42.37011224 29.98852539 50.12109375 C29.90088469 54.86496306 29.87294525 59.60611523 29.88235664 64.35074234 C29.87493126 66.14884783 29.84596671 67.94701154 29.79398918 69.74438095 C29.55321615 78.35341539 29.43190082 85.3298259 35.31021214 92.07873726 C37.34890634 94.1653095 39.47396877 96.11723107 41.67361641 98.03221512 C43.99403601 100.17044348 45.89744366 102.61046275 47.84375 105.0859375 C51.37650576 109.48437755 55.072509 113.6762576 58.890625 117.828125 C62.13502997 121.5088465 65.077704 125.41564082 68.015625 129.34375 C69.97937372 131.67868824 69.97937372 131.67868824 72.79003906 131.52685547 C73.57088867 131.48447754 74.35173828 131.44209961 75.15625 131.3984375 C82.06293578 117.2005797 88.92472352 102.98905414 95.53125 88.6484375 C100.60843591 77.63315494 105.85438871 66.70994275 111.17538452 55.8109436 C114.81262178 48.35850666 118.41779933 40.89582192 121.88671875 33.36328125 C122.18208527 32.72230499 122.47745178 32.08132874 122.7817688 31.42092896 C124.16636231 28.41092419 125.54219776 25.39741997 126.90820312 22.37890625 C134.80856996 5.09620152 134.80856996 5.09620152 141.15625 2.3984375 C145.38874876 1.30788123 149.52174173 1.26858726 153.86328125 1.30078125 C154.95137337 1.30290367 154.95137337 1.30290367 156.06144714 1.30506897 C158.3639245 1.31063819 160.66630235 1.32318489 162.96875 1.3359375 C164.53580588 1.34095648 166.1028633 1.34551869 167.66992188 1.34960938 C171.49873589 1.36059752 175.32747611 1.37784077 179.15625 1.3984375 C178.07786119 4.72763237 176.98873587 7.97576433 175.4921875 11.140625 C175.02304932 12.13678833 175.02304932 12.13678833 174.54443359 13.15307617 C174.21008301 13.85279541 173.87573242 14.55251465 173.53125 15.2734375 C172.99685303 16.4013269 172.99685303 16.4013269 172.45166016 17.55200195 C170.20842816 22.26338234 167.89239018 26.93284345 165.53125 31.5859375 C161.21591471 40.09483104 157.23611103 48.76025821 153.22137451 57.41342163 C149.39040914 65.66628713 145.47011766 73.85049071 141.34375 81.9609375 C137.80772857 89.03298037 134.54795712 96.24302328 131.22073364 103.41497803 C127.65825943 111.09014081 124.0551194 118.73058332 120.203125 126.265625 C116.53783669 133.50340951 113.19450516 140.89494699 109.79724121 148.26095581 C106.28403804 155.87377595 102.72750934 163.44871143 98.90893555 170.91333008 C97.21723305 174.23050864 95.60653845 177.56849751 94.0703125 180.9609375 C93.71880127 181.73219971 93.36729004 182.50346191 93.00512695 183.2980957 C92.33771123 184.77144147 91.67925712 186.24889656 91.03198242 187.73120117 C89.03846424 192.1203317 86.9047656 195.22385731 83.15625 198.3984375 C79.53694302 199.60487316 76.96393995 199.72112309 73.15625 199.3984375 C68.48040288 196.75173158 65.18548388 193.47145567 61.84375 189.3359375 C61.369375 188.76230469 60.895 188.18867188 60.40625 187.59765625 C58.98143638 185.87107245 57.56765976 184.13598572 56.15625 182.3984375 C55.38925781 181.46128906 54.62226563 180.52414062 53.83203125 179.55859375 C52.38075514 177.78423284 50.93153659 176.00818704 49.484375 174.23046875 C45.94746887 169.92802422 42.34083135 165.68555697 38.734375 161.44140625 C36.19176484 158.44035578 33.67261211 155.42148672 31.15625 152.3984375 C31.15038376 152.96806717 31.14451752 153.53769684 31.13847351 154.12458801 C31.07461036 160.04570946 30.99020962 165.96628379 30.89379883 171.88696289 C30.86051492 174.09750156 30.83249388 176.30812593 30.80981445 178.51879883 C30.77633241 181.69389416 30.72401948 184.86820167 30.66796875 188.04296875 C30.66157883 189.03367874 30.6551889 190.02438873 30.64860535 191.04512024 C30.61891411 192.42621223 30.61891411 192.42621223 30.58862305 193.83520508 C30.57751999 194.6457283 30.56641693 195.45625153 30.55497742 196.29133606 C30.05579855 198.92927982 29.30768191 199.82302043 27.15625 201.3984375 C24.46293989 201.6966522 22.00549206 201.81895411 19.3125 201.796875 C18.16424744 201.80118027 18.16424744 201.80118027 16.99279785 201.80557251 C15.37556213 201.8076125 13.7583017 201.80208713 12.14111328 201.78955078 C9.66512909 201.77349508 7.19077715 201.78940047 4.71484375 201.80859375 C3.14322556 201.80661131 1.57160839 201.8027676 0 201.796875 C-0.74068726 201.80294769 -1.48137451 201.80902039 -2.24450684 201.8152771 C-7.3827224 201.74494086 -7.3827224 201.74494086 -9.54173088 200.12225342 C-11.88112852 197.02499406 -11.19940615 193.0588144 -11.13330078 189.328125 C-11.1290358 188.3992598 -11.12477081 187.47039459 -11.12037659 186.51338196 C-11.11006365 184.49336761 -11.09335116 182.47337825 -11.07104874 180.45346069 C-11.03881796 177.24912537 -11.0301026 174.04555309 -11.02877808 170.84106445 C-11.0231662 161.72914428 -10.99438226 152.61783691 -10.90234375 143.50634766 C-10.84773528 137.93283137 -10.83730008 132.36066295 -10.85448837 126.78692627 C-10.85255259 124.66912898 -10.83420422 122.55127706 -10.79867935 120.43377686 C-10.28204317 106.71879152 -10.28204317 106.71879152 -16.12451172 94.82421875 C-17.66076539 93.31064786 -19.2335247 91.83306172 -20.84375 90.3984375 C-22.35905043 88.74566941 -23.86105531 87.08051783 -25.34375 85.3984375 C-26.09398437 84.57601562 -26.84421875 83.75359375 -27.6171875 82.90625 C-29.82235757 80.42253214 -31.89886004 77.87049045 -33.96875 75.2734375 C-39.69090612 68.19416825 -45.9481818 61.58320234 -52.28369141 55.05126953 C-53.84375 53.3984375 -53.84375 53.3984375 -55.79296875 50.92578125 C-58.20163198 49.13190063 -59.04691669 49.23086314 -61.97192383 49.30297852 C-63.24962646 49.33447998 -64.5273291 49.36598145 -65.84375 49.3984375 C-65.84337297 50.11350747 -65.84299595 50.82857744 -65.8426075 51.5653162 C-65.83548599 68.97601935 -65.86142695 86.38636 -65.9240284 103.79695225 C-65.95350755 112.21667006 -65.97185447 120.63613569 -65.96386719 129.0559082 C-65.95693266 136.39583567 -65.97101515 143.73537277 -66.01018608 151.07520431 C-66.03019165 154.96062852 -66.03977334 158.84543996 -66.02417374 162.7308979 C-66.00981052 166.39119885 -66.0236346 170.05033089 -66.05870247 173.71048164 C-66.07042003 175.68794179 -66.05258927 177.66550853 -66.0337677 179.64291382 C-66.12692647 186.28286212 -66.49439608 190.48915663 -71.3631115 195.24928188 C-74.74554938 197.87446519 -77.94147339 197.5267603 -82.0390625 197.49609375 C-82.74650604 197.4946788 -83.45394958 197.49326385 -84.18283081 197.49180603 C-86.44484669 197.4862035 -88.70676398 197.47365068 -90.96875 197.4609375 C-92.50130065 197.45592282 -94.03385286 197.45135986 -95.56640625 197.44726562 C-99.32555888 197.43623327 -103.08463772 197.41896702 -106.84375 197.3984375 C-106.98384242 172.58156901 -107.08968307 147.76475968 -107.15462303 122.94757557 C-107.18557577 111.42479557 -107.22778364 99.90226109 -107.29638672 88.37963867 C-107.35614501 78.33781561 -107.39488882 68.29617034 -107.40828097 58.25417441 C-107.41611074 52.93572878 -107.4345422 47.61779182 -107.47813034 42.29950905 C-107.51881477 37.29503351 -107.53142742 32.29127681 -107.52239609 27.28665161 C-107.52404859 25.44878421 -107.53600842 23.61089311 -107.55898285 21.77316856 C-107.58880639 19.26482948 -107.58167462 16.75920971 -107.5652771 14.25080872 C-107.58275415 13.5222018 -107.6002312 12.79359488 -107.61823785 12.04290897 C-107.56856519 9.23508 -107.37063048 7.04120011 -105.55504996 4.82630068 C-102.21142517 1.92181215 -99.74967107 0.76909827 -95.34838867 0.7355957 C-93.77096138 0.70711296 -93.77096138 0.70711296 -92.16166687 0.67805481 C-90.47869255 0.68853096 -90.47869255 0.68853096 -88.76171875 0.69921875 C-87.59296707 0.69206345 -86.42421539 0.68490814 -85.220047 0.67753601 C-82.75144208 0.66976465 -80.28276835 0.67475898 -77.81420898 0.69165039 C-74.05384154 0.71082232 -70.29719734 0.67153136 -66.53710938 0.62695312 C-64.13281031 0.62666264 -61.72850789 0.62980586 -59.32421875 0.63671875 C-58.20830856 0.62143631 -57.09239838 0.60615387 -55.94267273 0.59040833 C-46.79028929 0.72570288 -41.2696237 3.84163798 -34.875 10.22265625 C-34.0396875 11.16753906 -33.204375 12.11242187 -32.34375 13.0859375 C-31.88653564 13.59922607 -31.42932129 14.11251465 -30.95825195 14.64135742 C-27.19089957 18.9053599 -23.57014659 23.2910375 -20.01171875 27.73046875 C-17.34973285 31.00639013 -14.60304288 34.20441002 -11.84375 37.3984375 C-11.82916748 36.38418701 -11.81458496 35.36993652 -11.79956055 34.32495117 C-11.74158747 30.56189721 -11.66435541 26.79944229 -11.58129883 23.03686523 C-11.54804464 21.40838341 -11.52001416 19.77978619 -11.49731445 18.15112305 C-11.46377643 15.80988389 -11.41146415 13.46970264 -11.35546875 11.12890625 C-11.34907883 10.40068161 -11.3426889 9.67245697 -11.33610535 8.92216492 C-11.2557169 6.15858951 -11.11349459 3.90549665 -9.80200195 1.44018555 C-6.67007109 -0.22593451 -3.46129288 -0.0283782 0 0 Z " fill="#654AD4" transform="translate(220.84375,142.6015625)"/>
<path d="M0 0 C1.08809212 0.00212242 1.08809212 0.00212242 2.19816589 0.00428772 C4.50064325 0.00985694 6.8030211 0.02240364 9.10546875 0.03515625 C10.67252463 0.04017523 12.23958205 0.04473744 13.80664062 0.04882812 C17.63545464 0.05981627 21.46419486 0.07705952 25.29296875 0.09765625 C24.21457994 3.42685112 23.12545462 6.67498308 21.62890625 9.83984375 C21.31614746 10.50395264 21.00338867 11.16806152 20.68115234 11.85229492 C20.34680176 12.55201416 20.01245117 13.2517334 19.66796875 13.97265625 C19.13357178 15.10054565 19.13357178 15.10054565 18.58837891 16.2512207 C16.34514691 20.96260109 14.02910893 25.6320622 11.66796875 30.28515625 C7.35263346 38.79404979 3.37282978 47.45947696 -0.64190674 56.11264038 C-4.47287211 64.36550588 -8.39316359 72.54970946 -12.51953125 80.66015625 C-16.05555268 87.73219912 -19.31532413 94.94224203 -22.64254761 102.11419678 C-26.20502182 109.78935956 -29.80816185 117.42980207 -33.66015625 124.96484375 C-37.32544456 132.20262826 -40.66877609 139.59416574 -44.06604004 146.96017456 C-47.57924321 154.5729947 -51.13577191 162.14793018 -54.9543457 169.61254883 C-56.6460482 172.92972739 -58.2567428 176.26771626 -59.79296875 179.66015625 C-60.14447998 180.43141846 -60.49599121 181.20268066 -60.8581543 181.99731445 C-61.52557002 183.47066022 -62.18402413 184.94811531 -62.83129883 186.43041992 C-64.82481701 190.81955045 -66.95851565 193.92307606 -70.70703125 197.09765625 C-74.32633823 198.30409191 -76.8993413 198.42034184 -80.70703125 198.09765625 C-85.38287837 195.45095033 -88.67779737 192.17067442 -92.01953125 188.03515625 C-92.73109375 187.17470703 -92.73109375 187.17470703 -93.45703125 186.296875 C-94.88184487 184.5702912 -96.29562149 182.83520447 -97.70703125 181.09765625 C-98.47402344 180.16050781 -99.24101562 179.22335937 -100.03125 178.2578125 C-101.483686 176.48203347 -102.93420347 174.70468354 -104.3828125 172.92578125 C-107.88875795 168.65972326 -111.4580431 164.4480325 -115.03125 160.23828125 C-115.43509415 159.74540115 -115.83893829 159.25252106 -116.25502014 158.7447052 C-117.65188498 157.07966328 -117.65188498 157.07966328 -119.26023865 155.78361511 C-123.36714071 152.00621232 -124.15131579 148.86530043 -124.38818359 143.33618164 C-124.38723647 140.61757243 -124.35491425 137.91198057 -124.29296875 135.1953125 C-124.28176336 133.74801907 -124.27322952 132.30070272 -124.26724243 130.8533783 C-124.2444485 127.06342565 -124.18561157 123.27487595 -124.11901855 119.48547363 C-124.05738906 115.61095148 -124.0301837 111.73620026 -124 107.86132812 C-123.93585497 100.27280128 -123.83359533 92.68542612 -123.70703125 85.09765625 C-119.81924825 88.28043868 -116.57135036 91.24060701 -113.45703125 95.22265625 C-110.32576383 99.14199434 -107.10888694 102.91055179 -103.70703125 106.59765625 C-100.33700457 110.26072873 -97.09985454 113.98767866 -93.95703125 117.84765625 C-93.22484375 118.74613281 -92.49265625 119.64460938 -91.73828125 120.5703125 C-90.47069414 122.14748338 -89.21792903 123.73682393 -87.98828125 125.34375 C-86.339142 127.50524666 -86.339142 127.50524666 -83.70703125 130.09765625 C-81.09187891 130.33258226 -81.09187891 130.33258226 -78.70703125 130.09765625 C-71.80034547 115.89979845 -64.93855773 101.68827289 -58.33203125 87.34765625 C-53.25484534 76.33237369 -48.00889254 65.4091615 -42.68789673 54.51016235 C-39.05065947 47.05772541 -35.44548192 39.59504067 -31.9765625 32.0625 C-31.68119598 31.42152374 -31.38582947 30.78054749 -31.08151245 30.12014771 C-29.69691894 27.11014294 -28.32108349 24.09663872 -26.95507812 21.078125 C-19.05471129 3.79542027 -19.05471129 3.79542027 -12.70703125 1.09765625 C-8.47453249 0.00709998 -4.34153952 -0.03219399 0 0 Z " fill="#6447D0" transform="translate(374.70703125,143.90234375)"/>
<path d="M0 0 C1.14825256 -0.00430527 1.14825256 -0.00430527 2.31970215 -0.00869751 C3.93693787 -0.0107375 5.5541983 -0.00521213 7.17138672 0.00732422 C9.64737091 0.02337992 12.12172285 0.00747453 14.59765625 -0.01171875 C16.16927444 -0.00973631 17.74089161 -0.0058926 19.3125 0 C20.05318726 -0.00607269 20.79387451 -0.01214539 21.55700684 -0.0184021 C26.58920686 0.05048291 26.58920686 0.05048291 28.85155678 1.43872833 C30.87421794 4.47685834 30.56876885 7.61377746 30.53720093 11.14196777 C30.54422089 12.3370767 30.54422089 12.3370767 30.55138266 13.55632925 C30.56338062 16.23498612 30.55385685 18.91313591 30.54443359 21.59179688 C30.54849717 23.50853271 30.55383784 25.42526621 30.56036377 27.34199524 C30.57406866 32.55472085 30.56872563 37.76726882 30.55922651 42.97999763 C30.55164634 48.42787286 30.55867095 53.87573259 30.56338501 59.3236084 C30.56884736 68.47341653 30.56163838 77.62315209 30.54736328 86.77294922 C30.53103587 97.36065725 30.53632404 107.94819199 30.5528425 118.53589582 C30.56644372 127.61619793 30.56838371 136.69644777 30.56052649 145.77675676 C30.55584246 151.20444614 30.55524512 156.63205398 30.56513596 162.05973816 C30.5737835 167.16181259 30.56782426 172.26366297 30.55045319 177.36571312 C30.54647649 179.24146845 30.54764249 181.11724255 30.55424118 182.99299049 C30.56240022 185.54721983 30.55220396 188.10072447 30.53720093 190.65490723 C30.54723918 191.77683228 30.54723918 191.77683228 30.55748022 192.92142248 C30.52415842 195.83218781 30.49094837 197.89570517 28.85155678 200.35814667 C25.92173782 202.15597102 22.64726619 201.82421584 19.3125 201.796875 C18.16424744 201.80118027 18.16424744 201.80118027 16.99279785 201.80557251 C15.37556213 201.8076125 13.7583017 201.80208713 12.14111328 201.78955078 C9.66512909 201.77349508 7.19077715 201.78940047 4.71484375 201.80859375 C3.14322556 201.80661131 1.57160839 201.8027676 0 201.796875 C-0.74068726 201.80294769 -1.48137451 201.80902039 -2.24450684 201.8152771 C-7.27670686 201.74639209 -7.27670686 201.74639209 -9.53905678 200.35814667 C-11.56171794 197.32001666 -11.25626885 194.18309754 -11.22470093 190.65490723 C-11.2293809 189.85816794 -11.23406087 189.06142865 -11.23888266 188.24054575 C-11.25088062 185.56188888 -11.24135685 182.88373909 -11.23193359 180.20507812 C-11.23599717 178.28834229 -11.24133784 176.37160879 -11.24786377 174.45487976 C-11.26156866 169.24215415 -11.25622563 164.02960618 -11.24672651 158.81687737 C-11.23914634 153.36900214 -11.24617095 147.92114241 -11.25088501 142.4732666 C-11.25634736 133.32345847 -11.24913838 124.17372291 -11.23486328 115.02392578 C-11.21853587 104.43621775 -11.22382404 93.84868301 -11.2403425 83.26097918 C-11.25394372 74.18067707 -11.25588371 65.10042723 -11.24802649 56.02011824 C-11.24334246 50.59242886 -11.24274512 45.16482102 -11.25263596 39.73713684 C-11.2612835 34.63506241 -11.25532426 29.53321203 -11.23795319 24.43116188 C-11.23397649 22.55540655 -11.23514249 20.67963245 -11.24174118 18.80388451 C-11.24990022 16.24965517 -11.23970396 13.69615053 -11.22470093 11.14196777 C-11.23139309 10.39401774 -11.23808526 9.64606771 -11.24498022 8.87545252 C-11.21165842 5.96468719 -11.17844837 3.90116983 -9.53905678 1.43872833 C-6.60923782 -0.35909602 -3.33476619 -0.02734084 0 0 Z " fill="#FEFEFE" transform="translate(220.84375,142.6015625)"/>
<path d="M0 0 C1.28785652 0.00848969 1.28785652 0.00848969 2.60173035 0.01715088 C5.33272035 0.03946713 8.06237814 0.08965333 10.79296875 0.140625 C12.64906954 0.1606962 14.50519098 0.17894589 16.36132812 0.1953125 C20.90155171 0.23931619 25.44078468 0.30830979 29.98046875 0.390625 C29.98046875 0.720625 29.98046875 1.050625 29.98046875 1.390625 C28.8502832 1.3999707 27.72009766 1.40931641 26.55566406 1.41894531 C22.35832454 1.45884892 18.16171771 1.52460826 13.96484375 1.59814453 C12.14918436 1.6263521 10.33340223 1.64756774 8.51757812 1.66162109 C5.90561086 1.68305409 3.29511901 1.72970385 0.68359375 1.78125 C-0.12696472 1.78247864 -0.93752319 1.78370728 -1.77264404 1.78497314 C-5.18922633 1.87356159 -7.59150021 2.12606645 -10.52539062 3.93945312 C-12.57966907 7.30954391 -12.62238699 10.38211262 -12.62890625 14.21875 C-12.6454425 14.96775574 -12.66197876 15.71676147 -12.67901611 16.48846436 C-12.72746635 18.87260154 -12.74885897 21.25610111 -12.76953125 23.640625 C-12.79769365 25.26044869 -12.82762147 26.88024272 -12.859375 28.5 C-12.93322369 32.46348914 -12.98281582 36.42662498 -13.01953125 40.390625 C-13.34953125 40.390625 -13.67953125 40.390625 -14.01953125 40.390625 C-14.14324521 35.33700479 -14.23392171 30.28426798 -14.29418945 25.22949219 C-14.31931492 23.51058599 -14.35342172 21.79178644 -14.39672852 20.07324219 C-14.45747154 17.60064386 -14.48575887 15.12945894 -14.5078125 12.65625 C-14.53361893 11.88943909 -14.55942535 11.12262817 -14.58601379 10.33258057 C-14.58790584 6.72315499 -14.3126505 4.76204522 -12.05273438 1.8984375 C-7.91916446 -0.15636995 -4.55321022 -0.11362863 0 0 Z " fill="#6259DE" transform="translate(128.01953125,144.609375)"/>
<path d="M0 0 C0.90105469 0.01804688 1.80210938 0.03609375 2.73046875 0.0546875 C3.41753906 0.07789063 4.10460937 0.10109375 4.8125 0.125 C4.8125 0.455 4.8125 0.785 4.8125 1.125 C4.22082031 1.15078125 3.62914063 1.1765625 3.01953125 1.203125 C-2.2595013 1.58204414 -5.29386661 2.23136661 -9.1875 6.125 C-8.875 4.25 -8.875 4.25 -8.1875 2.125 C-4.87379 -0.08414 -3.8428979 -0.09981553 0 0 Z " fill="#635CE2" transform="translate(124.1875,144.875)"/>
<path d="M0 0 C3.3 0 6.6 0 10 0 C9.34 1.98 8.68 3.96 8 6 C7.67 4.68 7.34 3.36 7 2 C4.69 1.67 2.38 1.34 0 1 C0 0.67 0 0.34 0 0 Z " fill="#645AE4" transform="translate(389,145)"/>
</svg>
