<?xml version="1.0" encoding="UTF-8"?>
<svg version="1.1" xmlns="http://www.w3.org/2000/svg" width="500" height="500">
<path d="M0 0 C165 0 330 0 500 0 C500 165 500 330 500 500 C335 500 170 500 0 500 C0 335 0 170 0 0 Z " fill="#060706" transform="translate(0,0)"/>
<path d="M0 0 C1.14825256 -0.00430527 1.14825256 -0.00430527 2.31970215 -0.00869751 C3.93693787 -0.0107375 5.5541983 -0.00521213 7.17138672 0.00732422 C9.64737091 0.02337992 12.12172285 0.00747453 14.59765625 -0.01171875 C16.16927444 -0.00973631 17.74089161 -0.0058926 19.3125 0 C20.05318726 -0.00607269 20.79387451 -0.01214539 21.55700684 -0.0184021 C26.58588768 0.05043747 26.58588768 0.05043747 28.86024475 1.43811035 C30.87692753 4.48852855 30.49427839 7.62389652 30.39819336 11.15185547 C30.38456757 12.33550941 30.38456757 12.33550941 30.3706665 13.54307556 C30.35030882 15.25864436 30.32378148 16.9741484 30.29185295 18.68954086 C30.24567102 21.41557788 30.22566493 24.14058149 30.21424866 26.86697388 C30.18124072 34.6191571 30.13485909 42.37011224 29.98852539 50.12109375 C29.90088469 54.86496306 29.87294525 59.60611523 29.88235664 64.35074234 C29.87493126 66.14884783 29.84596671 67.94701154 29.79398918 69.74438095 C29.55321615 78.35341539 29.43190082 85.3298259 35.31021214 92.07873726 C37.34890634 94.1653095 39.47396877 96.11723107 41.67361641 98.03221512 C43.99403601 100.17044348 45.89744366 102.61046275 47.84375 105.0859375 C51.37650576 109.48437755 55.072509 113.6762576 58.890625 117.828125 C62.13502997 121.5088465 65.077704 125.41564082 68.015625 129.34375 C69.97937372 131.67868824 69.97937372 131.67868824 72.79003906 131.52685547 C73.57088867 131.48447754 74.35173828 131.44209961 75.15625 131.3984375 C82.06293578 117.2005797 88.92472352 102.98905414 95.53125 88.6484375 C100.60843591 77.63315494 105.85438871 66.70994275 111.17538452 55.8109436 C114.81262178 48.35850666 118.41779933 40.89582192 121.88671875 33.36328125 C122.18208527 32.72230499 122.47745178 32.08132874 122.7817688 31.42092896 C124.16636231 28.41092419 125.54219776 25.39741997 126.90820312 22.37890625 C134.54312608 5.67688194 134.54312608 5.67688194 141.94474792 2.19346619 C145.51851042 0.90870877 148.83207388 0.90059009 152.59375 1.0078125 C153.35929199 1.01347229 154.12483398 1.01913208 154.91357422 1.02496338 C157.32847021 1.04712915 159.74181223 1.09728211 162.15625 1.1484375 C163.80596796 1.16852835 165.45570948 1.18677456 167.10546875 1.203125 C171.12298305 1.24692807 175.13935426 1.31581148 179.15625 1.3984375 C178.07786119 4.72763237 176.98873587 7.97576433 175.4921875 11.140625 C175.17934814 11.80489502 174.86650879 12.46916504 174.54418945 13.15356445 C174.20991943 13.85312256 173.87564941 14.55268066 173.53125 15.2734375 C172.99794067 16.39915161 172.99794067 16.39915161 172.45385742 17.54760742 C170.19003737 22.30257883 167.85135068 27.01466988 165.46875 31.7109375 C161.67777059 39.18678748 158.16677117 46.78779628 154.65625 54.3984375 C147.67715302 69.52380695 147.67715302 69.52380695 144.15625 76.4609375 C136.02135081 92.49096124 128.33609558 108.74715039 120.84375 125.0859375 C117.44533798 132.49653798 114.00178477 139.86437207 110.30566406 147.13110352 C106.96653881 153.71280306 103.78634752 160.36971464 100.59375 167.0234375 C98.93554455 170.46955102 97.27649129 173.91525506 95.6171875 177.36083984 C94.72701576 179.21169492 93.83854636 181.06337162 92.953125 182.91650391 C92.00763832 184.89347069 91.05275881 186.86550607 90.09375 188.8359375 C89.60777344 189.84527344 89.12179687 190.85460937 88.62109375 191.89453125 C86.38024579 195.72488736 84.39659142 197.98499036 80.15625 199.3984375 C74.32104241 199.94892878 71.77234502 198.9099254 67.15625 195.3984375 C65.28521872 193.40722319 63.55400902 191.45244573 61.84375 189.3359375 C61.369375 188.76230469 60.895 188.18867188 60.40625 187.59765625 C58.98143638 185.87107245 57.56765976 184.13598572 56.15625 182.3984375 C55.38925781 181.46128906 54.62226563 180.52414062 53.83203125 179.55859375 C52.38075514 177.78423284 50.93153659 176.00818704 49.484375 174.23046875 C45.94746887 169.92802422 42.34083135 165.68555697 38.734375 161.44140625 C36.19176484 158.44035578 33.67261211 155.42148672 31.15625 152.3984375 C31.15038376 152.96806717 31.14451752 153.53769684 31.13847351 154.12458801 C31.07461036 160.04570946 30.99020962 165.96628379 30.89379883 171.88696289 C30.86051492 174.09750156 30.83249388 176.30812593 30.80981445 178.51879883 C30.77633241 181.69389416 30.72401948 184.86820167 30.66796875 188.04296875 C30.66157883 189.03367874 30.6551889 190.02438873 30.64860535 191.04512024 C30.61891411 192.42621223 30.61891411 192.42621223 30.58862305 193.83520508 C30.57751999 194.6457283 30.56641693 195.45625153 30.55497742 196.29133606 C30.05579855 198.92927982 29.30768191 199.82302043 27.15625 201.3984375 C24.46293989 201.6966522 22.00549206 201.81895411 19.3125 201.796875 C18.16424744 201.80118027 18.16424744 201.80118027 16.99279785 201.80557251 C15.37556213 201.8076125 13.7583017 201.80208713 12.14111328 201.78955078 C9.66512909 201.77349508 7.19077715 201.78940047 4.71484375 201.80859375 C3.14322556 201.80661131 1.57160839 201.8027676 0 201.796875 C-0.74068726 201.80294769 -1.48137451 201.80902039 -2.24450684 201.8152771 C-7.38279923 201.74493981 -7.38279923 201.74493981 -9.54257202 200.12141228 C-11.8770016 197.03024154 -11.18108533 193.08100525 -11.1015625 189.35986328 C-11.09408493 188.43421066 -11.08660736 187.50855804 -11.0789032 186.55485535 C-11.06188699 184.54137457 -11.03862778 182.52793922 -11.00991821 180.51459122 C-10.96841716 177.31811383 -10.95214956 174.12247774 -10.9440918 170.92575073 C-10.92019928 161.83567668 -10.87960597 152.74649871 -10.75146484 143.65722656 C-10.67490984 138.0965503 -10.65272918 132.53784063 -10.66473389 126.97668076 C-10.65913015 124.86604877 -10.63366795 122.75536523 -10.58721924 120.64523697 C-10.17117729 106.09879172 -10.17117729 106.09879172 -17.140625 93.84326172 C-18.99187315 91.96693091 -20.90930738 90.19191141 -22.84375 88.3984375 C-24.35300719 86.58979495 -25.83772458 84.75996362 -27.28125 82.8984375 C-31.65189819 77.52340337 -36.32493387 72.47020048 -41.05078125 67.41015625 C-43.3060545 64.99190574 -45.49885265 62.52989689 -47.65625 60.0234375 C-48.18992188 59.41757813 -48.72359375 58.81171875 -49.2734375 58.1875 C-50.37986899 56.92693875 -51.46676484 55.64909707 -52.5390625 54.359375 C-53.11398438 53.71226562 -53.68890625 53.06515625 -54.28125 52.3984375 C-54.77496094 51.8209375 -55.26867187 51.2434375 -55.77734375 50.6484375 C-58.15737888 49.20871871 -59.23930975 49.26514069 -61.97290039 49.3203125 C-63.25028076 49.34609375 -64.52766113 49.371875 -65.84375 49.3984375 C-65.84613835 50.1041218 -65.84852671 50.8098061 -65.85098743 51.53687477 C-65.91014218 68.71350518 -65.98569527 85.88998519 -66.07946491 103.06646156 C-66.12441658 111.37290808 -66.16383268 119.67931178 -66.19018555 127.98583984 C-66.21317074 135.22642716 -66.24657455 142.46687892 -66.29245156 149.70735872 C-66.31637684 153.5405995 -66.33511013 157.37370608 -66.34136391 161.20701981 C-66.34741798 164.81696744 -66.36742907 168.42657175 -66.39802551 172.03639221 C-66.4109767 173.98897303 -66.40923668 175.94163407 -66.4070282 177.89425659 C-66.48440459 185.1109566 -66.63317381 190.2133365 -71.98732471 195.52500343 C-75.66599131 197.93771815 -77.9580288 197.85876772 -82.33203125 197.7890625 C-83.03522995 197.78340271 -83.73842865 197.77774292 -84.4629364 197.77191162 C-86.69475248 197.74963519 -88.92492461 197.69946123 -91.15625 197.6484375 C-92.67510691 197.62836093 -94.19398916 197.61011218 -95.71289062 197.59375 C-99.42370545 197.54980107 -103.1335671 197.48083671 -106.84375 197.3984375 C-106.98384242 172.58156901 -107.08968307 147.76475968 -107.15462303 122.94757557 C-107.18557577 111.42479557 -107.22778364 99.90226109 -107.29638672 88.37963867 C-107.35614501 78.33781561 -107.39488882 68.29617034 -107.40828097 58.25417441 C-107.41611074 52.93572878 -107.4345422 47.61779182 -107.47813034 42.29950905 C-107.51881477 37.29503351 -107.53142742 32.29127681 -107.52239609 27.28665161 C-107.52404859 25.44878421 -107.53600842 23.61089311 -107.55898285 21.77316856 C-107.58880639 19.26482948 -107.58167462 16.75920971 -107.5652771 14.25080872 C-107.58275415 13.5222018 -107.6002312 12.79359488 -107.61823785 12.04290897 C-107.56856519 9.23508 -107.37063048 7.04120011 -105.55504996 4.82630068 C-102.21142517 1.92181215 -99.74967107 0.76909827 -95.34838867 0.7355957 C-93.77096138 0.70711296 -93.77096138 0.70711296 -92.16166687 0.67805481 C-90.47869255 0.68853096 -90.47869255 0.68853096 -88.76171875 0.69921875 C-87.59296707 0.69206345 -86.42421539 0.68490814 -85.220047 0.67753601 C-82.75144208 0.66976465 -80.28276835 0.67475898 -77.81420898 0.69165039 C-74.05384154 0.71082232 -70.29719734 0.67153136 -66.53710938 0.62695312 C-64.13281031 0.62666264 -61.72850789 0.62980586 -59.32421875 0.63671875 C-58.20830856 0.62143631 -57.09239838 0.60615387 -55.94267273 0.59040833 C-46.79028929 0.72570288 -41.2696237 3.84163798 -34.875 10.22265625 C-34.0396875 11.16753906 -33.204375 12.11242187 -32.34375 13.0859375 C-31.88653564 13.59922607 -31.42932129 14.11251465 -30.95825195 14.64135742 C-27.19089957 18.9053599 -23.57014659 23.2910375 -20.01171875 27.73046875 C-17.34973285 31.00639013 -14.60304288 34.20441002 -11.84375 37.3984375 C-11.82916748 36.38418701 -11.81458496 35.36993652 -11.79956055 34.32495117 C-11.74158747 30.56189721 -11.66435541 26.79944229 -11.58129883 23.03686523 C-11.54804464 21.40838341 -11.52001416 19.77978619 -11.49731445 18.15112305 C-11.46377643 15.80988389 -11.41146415 13.46970264 -11.35546875 11.12890625 C-11.34907883 10.40068161 -11.3426889 9.67245697 -11.33610535 8.92216492 C-11.2557169 6.15858951 -11.11349459 3.90549665 -9.80200195 1.44018555 C-6.67007109 -0.22593451 -3.46129288 -0.0283782 0 0 Z " fill="#0098E9" transform="translate(220.84375,142.6015625)"/>
<path d="M0 0 C0.76554199 0.00565979 1.53108398 0.01131958 2.31982422 0.01715088 C4.73472021 0.03931665 7.14806223 0.08946961 9.5625 0.140625 C11.21221796 0.16071585 12.86195948 0.17896206 14.51171875 0.1953125 C18.52923305 0.23911557 22.54560426 0.30799898 26.5625 0.390625 C25.48411119 3.71981987 24.39498587 6.96795183 22.8984375 10.1328125 C22.42917847 11.12921753 22.42917847 11.12921753 21.95043945 12.14575195 C21.61616943 12.84531006 21.28189941 13.54486816 20.9375 14.265625 C20.58196045 15.01610107 20.2264209 15.76657715 19.86010742 16.53979492 C17.59628737 21.29476633 15.25760068 26.00685738 12.875 30.703125 C9.08402059 38.17897498 5.57302117 45.77998378 2.0625 53.390625 C-4.91659698 68.51599445 -4.91659698 68.51599445 -8.4375 75.453125 C-16.57239919 91.48314874 -24.25765442 107.73933789 -31.75 124.078125 C-35.14841202 131.48872548 -38.59196523 138.85655957 -42.28808594 146.12329102 C-45.62721119 152.70499056 -48.80740248 159.36190214 -52 166.015625 C-53.65820545 169.46173852 -55.31725871 172.90744256 -56.9765625 176.35302734 C-57.86673424 178.20388242 -58.75520364 180.05555912 -59.640625 181.90869141 C-60.58611168 183.88565819 -61.54099119 185.85769357 -62.5 187.828125 C-63.22896484 189.34212891 -63.22896484 189.34212891 -63.97265625 190.88671875 C-66.21350421 194.71707486 -68.19715858 196.97717786 -72.4375 198.390625 C-78.27270759 198.94111628 -80.82140498 197.9021129 -85.4375 194.390625 C-87.30853128 192.39941069 -89.03974098 190.44463323 -90.75 188.328125 C-91.4615625 187.46767578 -91.4615625 187.46767578 -92.1875 186.58984375 C-93.61231362 184.86325995 -95.02609024 183.12817322 -96.4375 181.390625 C-97.20449219 180.45347656 -97.97148437 179.51632812 -98.76171875 178.55078125 C-100.21415475 176.77500222 -101.66467222 174.99765229 -103.11328125 173.21875 C-106.6192267 168.95269201 -110.18851185 164.74100125 -113.76171875 160.53125 C-114.1655629 160.0383699 -114.56940704 159.54548981 -114.98548889 159.03767395 C-116.38235373 157.37263203 -116.38235373 157.37263203 -117.9907074 156.07658386 C-122.09760946 152.29918107 -122.88178454 149.15826918 -123.11865234 143.62915039 C-123.11770522 140.91054118 -123.085383 138.20494932 -123.0234375 135.48828125 C-123.01223211 134.04098782 -123.00369827 132.59367147 -122.99771118 131.14634705 C-122.97491725 127.3563944 -122.91608032 123.5678447 -122.8494873 119.77844238 C-122.78785781 115.90392023 -122.76065245 112.02916901 -122.73046875 108.15429688 C-122.66632372 100.56577003 -122.56406408 92.97839487 -122.4375 85.390625 C-118.549717 88.57340743 -115.30181911 91.53357576 -112.1875 95.515625 C-109.05623258 99.43496309 -105.83935569 103.20352054 -102.4375 106.890625 C-99.06747332 110.55369748 -95.83032329 114.28064741 -92.6875 118.140625 C-91.9553125 119.03910156 -91.223125 119.93757813 -90.46875 120.86328125 C-89.20116289 122.44045213 -87.94839778 124.02979268 -86.71875 125.63671875 C-85.06961075 127.79821541 -85.06961075 127.79821541 -82.4375 130.390625 C-79.82234766 130.62555101 -79.82234766 130.62555101 -77.4375 130.390625 C-70.53081422 116.1927672 -63.66902648 101.98124164 -57.0625 87.640625 C-51.98531409 76.62534244 -46.73936129 65.70213025 -41.41836548 54.8031311 C-37.78112822 47.35069416 -34.17595067 39.88800942 -30.70703125 32.35546875 C-30.41166473 31.71449249 -30.11629822 31.07351624 -29.8119812 30.41311646 C-28.42738769 27.40311169 -27.05155224 24.38960747 -25.68554688 21.37109375 C-18.05062392 4.66906944 -18.05062392 4.66906944 -10.64900208 1.18565369 C-7.07523958 -0.09910373 -3.76167612 -0.10722241 0 0 Z " fill="#0094E6" transform="translate(373.4375,143.609375)"/>
<path d="M0 0 C1.14825256 -0.00430527 1.14825256 -0.00430527 2.31970215 -0.00869751 C3.93693787 -0.0107375 5.5541983 -0.00521213 7.17138672 0.00732422 C9.64737091 0.02337992 12.12172285 0.00747453 14.59765625 -0.01171875 C16.16927444 -0.00973631 17.74089161 -0.0058926 19.3125 0 C20.05318726 -0.00607269 20.79387451 -0.01214539 21.55700684 -0.0184021 C26.58920686 0.05048291 26.58920686 0.05048291 28.85155678 1.43872833 C30.87421794 4.47685834 30.56876885 7.61377746 30.53720093 11.14196777 C30.54422089 12.3370767 30.54422089 12.3370767 30.55138266 13.55632925 C30.56338062 16.23498612 30.55385685 18.91313591 30.54443359 21.59179688 C30.54849717 23.50853271 30.55383784 25.42526621 30.56036377 27.34199524 C30.57406866 32.55472085 30.56872563 37.76726882 30.55922651 42.97999763 C30.55164634 48.42787286 30.55867095 53.87573259 30.56338501 59.3236084 C30.56884736 68.47341653 30.56163838 77.62315209 30.54736328 86.77294922 C30.53103587 97.36065725 30.53632404 107.94819199 30.5528425 118.53589582 C30.56644372 127.61619793 30.56838371 136.69644777 30.56052649 145.77675676 C30.55584246 151.20444614 30.55524512 156.63205398 30.56513596 162.05973816 C30.5737835 167.16181259 30.56782426 172.26366297 30.55045319 177.36571312 C30.54647649 179.24146845 30.54764249 181.11724255 30.55424118 182.99299049 C30.56240022 185.54721983 30.55220396 188.10072447 30.53720093 190.65490723 C30.54723918 191.77683228 30.54723918 191.77683228 30.55748022 192.92142248 C30.52415842 195.83218781 30.49094837 197.89570517 28.85155678 200.35814667 C25.92173782 202.15597102 22.64726619 201.82421584 19.3125 201.796875 C18.16424744 201.80118027 18.16424744 201.80118027 16.99279785 201.80557251 C15.37556213 201.8076125 13.7583017 201.80208713 12.14111328 201.78955078 C9.66512909 201.77349508 7.19077715 201.78940047 4.71484375 201.80859375 C3.14322556 201.80661131 1.57160839 201.8027676 0 201.796875 C-0.74068726 201.80294769 -1.48137451 201.80902039 -2.24450684 201.8152771 C-7.27670686 201.74639209 -7.27670686 201.74639209 -9.53905678 200.35814667 C-11.56171794 197.32001666 -11.25626885 194.18309754 -11.22470093 190.65490723 C-11.2293809 189.85816794 -11.23406087 189.06142865 -11.23888266 188.24054575 C-11.25088062 185.56188888 -11.24135685 182.88373909 -11.23193359 180.20507812 C-11.23599717 178.28834229 -11.24133784 176.37160879 -11.24786377 174.45487976 C-11.26156866 169.24215415 -11.25622563 164.02960618 -11.24672651 158.81687737 C-11.23914634 153.36900214 -11.24617095 147.92114241 -11.25088501 142.4732666 C-11.25634736 133.32345847 -11.24913838 124.17372291 -11.23486328 115.02392578 C-11.21853587 104.43621775 -11.22382404 93.84868301 -11.2403425 83.26097918 C-11.25394372 74.18067707 -11.25588371 65.10042723 -11.24802649 56.02011824 C-11.24334246 50.59242886 -11.24274512 45.16482102 -11.25263596 39.73713684 C-11.2612835 34.63506241 -11.25532426 29.53321203 -11.23795319 24.43116188 C-11.23397649 22.55540655 -11.23514249 20.67963245 -11.24174118 18.80388451 C-11.24990022 16.24965517 -11.23970396 13.69615053 -11.22470093 11.14196777 C-11.23139309 10.39401774 -11.23808526 9.64606771 -11.24498022 8.87545252 C-11.21165842 5.96468719 -11.17844837 3.90116983 -9.53905678 1.43872833 C-6.60923782 -0.35909602 -3.33476619 -0.02734084 0 0 Z " fill="#FEFEFE" transform="translate(220.84375,142.6015625)"/>
<path d="M0 0 C0 0.66 0 1.32 0 2 C-2.90567134 4.01782732 -5.51669784 5.35494404 -9 6 C-3.15384615 0 -3.15384615 0 0 0 Z " fill="#0195CA" transform="translate(364,145)"/>
</svg>
